<svg width="120" height="70" viewBox="0 0 120 60" fill="none" xmlns="http://www.w3.org/2000/svg">
    <rect x="10" y="0" width="100" height="50" rx="8" fill="#2563eb" stroke="#1e40af" strokeWidth="2" />
    <rect x="15" y="5" width="90" height="40" rx="4" fill="#1e293b" />
    {/* Colorful Keys */}
    <rect x="18" y="8" width="8" height="8" rx="2" fill="#ef4444" />
    <rect x="28" y="8" width="8" height="8" rx="2" fill="#f97316" />
    <rect x="38" y="8" width="8" height="8" rx="2" fill="#eab308" />
    <rect x="48" y="8" width="8" height="8" rx="2" fill="#22c55e" />
    <rect x="58" y="8" width="8" height="8" rx="2" fill="#06b6d4" />
    <rect x="68" y="8" width="8" height="8" rx="2" fill="#3b82f6" />
    <rect x="78" y="8" width="8" height="8" rx="2" fill="#8b5cf6" />
    <rect x="88" y="8" width="8" height="8" rx="2" fill="#ec4899" />
    <rect x="98" y="8" width="8" height="8" rx="2" fill="#f43f5e" />

    <rect x="20" y="18" width="8" height="8" rx="2" fill="#10b981" />
    <rect x="30" y="18" width="8" height="8" rx="2" fill="#f59e0b" />
    <rect x="40" y="18" width="8" height="8" rx="2" fill="#ef4444" />
    <rect x="50" y="18" width="8" height="8" rx="2" fill="#8b5cf6" />
    <rect x="60" y="18" width="8" height="8" rx="2" fill="#06b6d4" />
    <rect x="70" y="18" width="8" height="8" rx="2" fill="#22c55e" />
    <rect x="80" y="18" width="8" height="8" rx="2" fill="#f97316" />
    <rect x="90" y="18" width="8" height="8" rx="2" fill="#ec4899" />

    <rect x="25" y="28" width="8" height="8" rx="2" fill="#3b82f6" />
    <rect x="35" y="28" width="8" height="8" rx="2" fill="#10b981" />
    <rect x="45" y="28" width="20" height="8" rx="2" fill="#6b7280" />
    <rect x="67" y="28" width="8" height="8" rx="2" fill="#f59e0b" />
    <rect x="77" y="28" width="8" height="8" rx="2" fill="#ef4444" />
    <rect x="87" y="28" width="8" height="8" rx="2" fill="#8b5cf6" />
  </svg>